<?xml version="1.0" encoding="UTF-8"?>
<svg width="5px" height="9px" viewBox="0 0 5 9" version="1.1" xmlns="http://www.w3.org/2000/svg" xmlns:xlink="http://www.w3.org/1999/xlink">
    <!-- Generator: sketchtool 55.2 (78181) - https://sketchapp.com -->
    <title>85618C77-4477-4A6E-8FC4-7E185F13AF53</title>
    <desc>Created with sketchtool.</desc>
    <g id="Support" stroke="none" stroke-width="1" fill="none" fill-rule="evenodd">
        <g id="Permissions" transform="translate(-370.000000, -506.000000)" fill="#0459E4" stroke="#0459E4" stroke-width="0.5">
            <g id="Group-4" transform="translate(364.000000, 498.000000)">
                <g id="expand-copy" transform="translate(0.000000, 3.375000)">
                    <path d="M5.83071022,7.14440289 L8.50001399,9.85045041 L11.1691971,7.14440289 C11.3539737,6.95710549 11.6595611,6.95122303 11.8518205,7.13134384 C12.0440799,7.31146465 12.0499937,7.60946988 11.8652171,7.79676729 L8.84796366,10.8556445 C8.75696329,10.9478814 8.63120417,11 8.50001399,11 C8.36870312,11 8.242944,10.9478814 8.15194363,10.8556445 L5.13469019,7.79676729 C5.04465535,7.70547157 5,7.58805774 5,7.47064392 C5,7.34711233 5.04960365,7.2236984 5.1480868,7.13134384 C5.34034619,6.95122303 5.64593362,6.95710549 5.83071022,7.14440289 Z" id="chevron-copy-10" transform="translate(8.500000, 9.000000) scale(-1, 1) rotate(90.000000) translate(-8.500000, -9.000000) "></path>
                </g>
            </g>
        </g>
    </g>
</svg>
